<svg width="162" height="239" viewBox="0 0 162 239" fill="none" xmlns="http://www.w3.org/2000/svg">
<path d="M75.4854 0C95.4901 4.53456 114.962 22.7675 133.899 31.0361C138.967 24.368 143.768 18.7668 148.836 14.2324L154.787 7.43652L161.479 12.1465C155.878 16.4145 139.767 33.7039 130.432 46.5068C121.096 59.0431 112.294 72.913 103.492 87.583C140.034 89.9837 158.438 103.587 158.438 128.126C158.438 147.331 151.77 160.401 133.633 177.472C119.229 190.808 96.824 223.091 89.6221 238.955C74.4184 221.604 53.6132 198.543 39.7432 198.543C20.8052 198.543 8.80176 206.546 8.80176 233.219H8.26855L0 226.283C2.40061 210.546 8.26895 196.943 17.6045 186.007C26.9401 175.071 37.8761 169.47 49.8789 169.47C68.0166 169.47 80.9011 184.059 105.707 195.795C109.975 191.26 121.896 178.805 124.03 175.871C128.298 170.27 132.832 160.668 132.832 151.065C132.832 131.061 123.23 120.658 96.8232 120.658C90.1551 120.658 85.6205 120.658 82.6865 120.925C74.418 136.928 61.4094 145.631 55.0078 147.498L41.0107 144.514L42.498 142.778C46.4991 143.045 54.9465 139.596 60.8145 135.595C66.9493 131.327 71.4839 126.526 74.418 121.458C36.2756 121.458 17.0715 105.721 17.0713 74.5137C17.0713 49.1742 38.143 18.1377 75.4854 0ZM86.6865 28.6826C79.3876 24.6221 69.5797 24.1415 53.6133 31.3027C43.4775 36.9041 38.4092 44.9061 38.4092 55.3086C38.4092 78.781 50.1455 87.583 84.2871 87.583C89.355 87.583 93.0894 87.5831 96.0234 87.3164C100.694 79.462 105.703 71.608 110.914 63.6191C102.405 60.6144 87.6768 47.2508 75.6523 63.0723C64.0742 78.3065 77.4269 44.554 86.6865 28.6826ZM97.4785 38.4629C96.7942 39.3323 96.3848 40.4289 96.3848 41.6211C96.385 44.4437 98.6735 46.7323 101.496 46.7324C102.268 46.7324 103 46.5594 103.656 46.2529C101.534 43.6215 99.5324 40.9601 97.4785 38.4629Z" fill="white"/>
</svg>
